<svg width="30" height="30" viewBox="0 0 30 30" version="1.1" xmlns="http://www.w3.org/2000/svg" xmlns:xlink="http://www.w3.org/1999/xlink">
<title>back</title>
<desc>Created using Figma</desc>
<g id="Canvas" transform="translate(2058 381)">
<g id="back">
<use xlink:href="#path0_fill" transform="translate(-2058 -381)" fill="#1DA1F2"/>
</g>
</g>
<defs>
<path id="path0_fill" d="M 28 13L 7 12.9999L 16.2797 3.63426C 16.6645 3.2298 16.8774 2.68809 16.8726 2.1258C 16.8678 1.56352 16.6456 1.02564 16.254 0.628034C 15.8623 0.230423 15.3325 0.00488611 14.7786 0C 14.2248 -0.00488611 13.6912 0.21127 13.2928 0.601911L 0.618478 13.469C 0.222467 13.8712 0 14.4165 0 14.9852C 0 15.5538 0.222467 16.0992 0.618478 16.5014L 13.2928 29.3685C 13.4884 29.5686 13.721 29.7274 13.9773 29.8357C 14.2337 29.9441 14.5086 29.9999 14.7862 29.9999C 15.0639 29.9999 15.3388 29.9441 15.5951 29.8357C 15.8515 29.7274 16.0841 29.5686 16.2797 29.3685C 16.6757 28.9663 16.8982 28.4209 16.8982 27.8523C 16.8982 27.2836 16.6757 26.7383 16.2797 26.3361L 7 17L 28 17C 28.5602 17 28.9851 16.8084 29.3813 16.4062C 29.7774 16.0041 30 15.5539 30 14.9852C 30 14.4164 29.7774 13.9803 29.3813 13.5781C 28.9851 13.176 28.5602 13 28 13Z"/>
</defs>
</svg>
