<svg width="30" height="30" viewBox="0 0 30 30" version="1.1" xmlns="http://www.w3.org/2000/svg" xmlns:xlink="http://www.w3.org/1999/xlink">
<title>back-icon</title>
<desc>Created using Figma</desc>
<g id="Canvas" transform="translate(-130 384)">
<g id="back-icon">
<g id="Vector">
<use xlink:href="#path0_fill" transform="translate(132 -381)" fill="#1DA1F2"/>
</g>
</g>
</g>
<defs>
<path id="path0_fill" d="M 25.4117 9.84457L 5.42196 9.84457L 12.2403 2.78633C 12.5297 2.47624 12.6897 2.06093 12.6861 1.62984C 12.6825 1.19876 12.5155 0.78639 12.221 0.481555C 11.9265 0.17672 11.5282 0.00380817 11.1117 6.21521e-05C 10.6953 -0.00368386 10.2941 0.162036 9.99455 0.461527L 0.46502 10.3263C 0.167268 10.6346 0 11.0527 0 11.4887C 0 11.9247 0.167268 12.3428 0.46502 12.6511L 9.99455 22.5159C 10.1416 22.6693 10.3165 22.791 10.5093 22.8741C 10.702 22.9572 10.9087 23 11.1174 23C 11.3262 23 11.5329 22.9572 11.7256 22.8741C 11.9184 22.791 12.0933 22.6693 12.2403 22.5159C 12.5381 22.2076 12.7054 21.7894 12.7054 21.3535C 12.7054 20.9175 12.5381 20.4994 12.2403 20.1911L 5.42196 13.1328L 25.4117 13.1328C 25.833 13.1328 26.237 12.9596 26.5348 12.6513C 26.8327 12.3429 27 11.9248 27 11.4887C 27 11.0527 26.8327 10.6345 26.5348 10.3261C 26.237 10.0178 25.833 9.84457 25.4117 9.84457Z"/>
</defs>
</svg>
