<svg xmlns="http://www.w3.org/2000/svg" class="_1d8T2U75 rn-4qtqp9 rn-yyyyoo rn-1xvli5t rn-dnmrzs rn-bnwqim rn-m6rgpd rn-lrvibr" viewBox="0 0 32 24"><g stroke="none" fill="#ffffff" stroke-width="1px"><path d="M25.994 9.072v2.256h4.504v3.752h-4.504v4.507H22.24V5.32H32v3.753h-6.006zM15.482 19.587h3.752V5.32H15.48v14.267h.002zm-9.236-5.35h2.672v1.288a3.519 3.519 0 0 1-1.782.496c-1.968 0-3.568-1.6-3.568-3.567s1.6-3.565 3.568-3.565c.992 0 1.912.42 2.587 1.14l2.76-2.21v-.07a7.11 7.11 0 0 0-5.35-2.43h.003C3.2 5.317 0 8.517 0 12.452s3.2 7.136 7.136 7.136c2.128 0 4.04-.945 5.35-2.433V11.56h-6.24v2.677z" stroke="none" fill="#ffffff" stroke-width="1px"></path></g></svg>