<svg width="30" height="30" viewBox="0 0 30 30" version="1.1" xmlns="http://www.w3.org/2000/svg" xmlns:xlink="http://www.w3.org/1999/xlink">
<title>gif</title>
<desc>Created using Figma</desc>
<g id="Canvas" transform="translate(1568 -158)">
<g id="gif">
<g id="Vector">
<use xlink:href="#path0_fill" transform="translate(-1563 169)" fill="#1DA1F2"/>
</g>
<g id="Vector">
<use xlink:href="#path1_fill" transform="translate(-1568 158)" fill="#1DA1F2"/>
</g>
</g>
</g>
<defs>
<path id="path0_fill" d="M 20 2.39063L 20 2.68221e-07L 13.7589 2.68221e-07L 13.7589 9L 16.1702 9L 16.1702 6.1875L 19.0071 6.1875L 19.0071 3.79688L 16.1702 3.79688L 16.1702 2.39063L 20 2.39063L 20 2.39063ZM 9.64539 2.68221e-07L 12.0567 2.68221e-07L 12.0567 9L 9.64539 9L 9.64539 2.68221e-07ZM 4.53901 2.25C 5.10638 2.25 5.8156 2.53125 6.24113 2.95312L 7.94326 1.54687C 7.0922 0.5625 5.8156 2.68221e-07 4.53901 2.68221e-07C 1.98582 2.68221e-07 1.35273e-07 1.96875 1.35273e-07 4.5C 1.35273e-07 7.03125 1.98582 9 4.53901 9C 5.95745 9 7.0922 8.4375 7.94326 7.45313L 7.94326 3.9375L 3.97163 3.9375L 3.97163 5.625L 5.67376 5.625L 5.67376 6.46875C 5.39007 6.60937 4.96454 6.75 4.53901 6.75C 3.26241 6.75 2.2695 5.76562 2.2695 4.5C 2.2695 3.375 3.26241 2.25 4.53901 2.25L 4.53901 2.25Z"/>
<path id="path1_fill" d="M 26.6512 1.33526e-12L 3.34884 1.33526e-12C 2.46144 -7.94956e-07 1.61033 0.354961 0.982429 0.986923C 0.354528 1.61889 0.00118319 2.47617 0 3.3705L 0 26.631C 0.00197018 27.5249 0.355615 28.3816 0.983388 29.0132C 1.61116 29.6447 2.46182 29.9996 3.34884 30L 26.6512 30C 28.4967 30 30 28.488 30 26.631L 30 3.3705C 29.9988 2.47617 29.6455 1.61889 29.0176 0.986923C 28.3897 0.354961 27.5386 -7.94956e-07 26.6512 1.33526e-12ZM 27.7674 26.631C 27.7659 26.9283 27.6476 27.2129 27.4384 27.4226C 27.2292 27.6323 26.9462 27.75 26.6512 27.75L 3.34884 27.75C 3.05381 27.75 2.77078 27.6323 2.56161 27.4226C 2.35243 27.2129 2.23413 26.9283 2.23256 26.631L 2.23256 3.3705C 2.23256 2.7525 2.73265 2.25 3.34884 2.25L 26.6512 2.25C 27.2673 2.25 27.7674 2.7525 27.7674 3.3705L 27.7674 26.631Z"/>
</defs>
</svg>
