<svg width="100" height="100" viewBox="0 0 100 100" version="1.1" xmlns="http://www.w3.org/2000/svg" xmlns:xlink="http://www.w3.org/1999/xlink">
<title>photo</title>
<desc>Created using Figma</desc>
<g id="Canvas" transform="translate(1564 14)">
<g id="photo">
<g id="Group">
<g id="Vector">
<use xlink:href="#path0_fill" transform="translate(-1564 -14)" fill="#1DA1F2"/>
</g>
<g id="Vector">
<use xlink:href="#path1_fill" transform="translate(-1537.37 9.83499)" fill="#1DA1F2"/>
</g>
</g>
</g>
</g>
<defs>
<path id="path0_fill" d="M 88.75 0L 11.25 0C 5.05 0 0 5.05 0 11.25L 0 88.75C 0 94.95 5.05 100 11.25 100L 88.75 100C 94.95 100 100 94.95 100 88.75L 100 11.25C 100 5.05 94.95 0 88.75 0ZM 11.25 7.5L 88.75 7.5C 90.815 7.5 92.5 9.185 92.5 11.25L 92.5 59.63L 73.21 40.34C 72.5074 39.6365 71.5542 39.2409 70.56 39.24L 70.545 39.24C 70.0492 39.2389 69.5582 39.3375 69.1013 39.5299C 68.6443 39.7223 68.2307 40.0046 67.885 40.36L 46.3 62.28L 37.235 53.25C 36.5324 52.5465 35.5792 52.1509 34.585 52.15C 33.62 52 32.61 52.55 31.91 53.285L 7.5 78.21L 7.5 11.25C 7.5 9.185 9.185 7.5 11.25 7.5ZM 7.53 88.9L 34.62 61.23L 66.03 92.5L 11.25 92.5C 10.2861 92.4931 9.36186 92.1152 8.66917 91.4449C 7.97648 90.7745 7.56853 89.8632 7.53 88.9ZM 88.75 92.5L 76.65 92.5L 51.615 67.565L 70.575 48.315L 92.5 70.235L 92.5 88.75C 92.5 90.815 90.815 92.5 88.75 92.5Z"/>
<path id="path1_fill" d="M 7.71 15.42C 11.9681 15.42 15.42 11.9681 15.42 7.71C 15.42 3.45188 11.9681 0 7.71 0C 3.45188 0 0 3.45188 0 7.71C 0 11.9681 3.45188 15.42 7.71 15.42Z"/>
</defs>
</svg>
