<svg width="28" height="28" viewBox="0 0 28 28" version="1.1" xmlns="http://www.w3.org/2000/svg" xmlns:xlink="http://www.w3.org/1999/xlink">
<title>remove-image</title>
<desc>Created using Figma</desc>
<g id="Canvas" transform="translate(476 66)">
<g id="remove-image">
<g id="Vector">
<use xlink:href="#path0_fill" transform="translate(-476 -66)" fill="#657786"/>
</g>
<g id="Vector">
<use xlink:href="#path1_fill" transform="translate(-467.308 -57.3103)" fill="#FFFFFF"/>
</g>
</g>
</g>
<defs>
<path id="path0_fill" d="M 14 0C 6.27981 0 0 6.27981 0 14C 0 21.7202 6.27981 28 14 28C 21.7202 28 28 21.7202 28 14C 28 6.27981 21.7202 0 14 0Z"/>
<path id="path1_fill" d="M 10.3307 8.95028L 6.69074 5.31028L 10.3281 1.66637C 10.4188 1.57573 10.4907 1.46812 10.5397 1.34969C 10.5888 1.23126 10.614 1.10432 10.614 0.976136C 10.614 0.847948 10.5888 0.721015 10.5397 0.602585C 10.4907 0.484155 10.4188 0.376547 10.3281 0.285904C 10.2375 0.195261 10.1299 0.12336 10.0115 0.0743041C 9.89302 0.0252487 9.76609 -6.494e-08 9.6379 -6.3985e-08C 9.50972 -6.30299e-08 9.38278 0.0252487 9.26435 0.0743041C 9.14592 0.12336 9.03831 0.195261 8.94767 0.285904L 5.30767 3.92721L 1.66637 0.289811C 1.57573 0.199169 1.46812 0.127266 1.34969 0.0782108C 1.23126 0.0291554 1.10432 0.00390725 0.976136 0.00390725C 0.847948 0.00390725 0.721015 0.0291554 0.602585 0.0782108C 0.484155 0.127266 0.376546 0.199167 0.285904 0.28981C 0.195261 0.380453 0.123359 0.488062 0.0743039 0.606492C 0.0252485 0.724923 -2.38368e-07 0.851855 -2.35841e-07 0.980043C -2.33314e-07 1.10823 0.0252485 1.23516 0.0743039 1.35359C 0.123359 1.47202 0.195261 1.57963 0.285904 1.67028L 3.92721 5.31028L 0.287207 8.95418C 0.196564 9.04483 0.124662 9.15243 0.0756062 9.27086C 0.0265507 9.38929 0.00130262 9.51623 0.00130262 9.64441C 0.00130262 9.7726 0.0265507 9.89954 0.0756062 10.018C 0.124662 10.1364 0.196564 10.244 0.287207 10.3346C 0.377849 10.4253 0.485458 10.4972 0.603888 10.5462C 0.722318 10.5953 0.849251 10.6206 0.977439 10.6206C 1.10563 10.6206 1.23256 10.5953 1.35099 10.5462C 1.46942 10.4972 1.57703 10.4253 1.66767 10.3346L 5.30767 6.69335L 8.94767 10.3307C 9.13781 10.5235 9.38786 10.6173 9.6379 10.6173C 9.88795 10.6173 10.138 10.5222 10.3281 10.3307C 10.4189 10.2401 10.4908 10.1326 10.5399 10.0141C 10.5891 9.89568 10.6143 9.76872 10.6143 9.64051C 10.6143 9.51229 10.5891 9.38534 10.5399 9.2669C 10.4908 9.14847 10.4189 9.04087 10.3281 8.95028L 10.3307 8.95028Z"/>
</defs>
</svg>
