<svg width="100" height="100" viewBox="0 0 100 100" version="1.1" xmlns="http://www.w3.org/2000/svg" xmlns:xlink="http://www.w3.org/1999/xlink">
<title>settings</title>
<desc>Created using Figma</desc>
<g id="Canvas" transform="translate(1364 384)">
<g id="settings">
<g id="Vector">
<use xlink:href="#path0_fill" transform="translate(-1332.26 -352.265)" fill="#1DA1F2"/>
</g>
<g id="Vector">
<use xlink:href="#path1_fill" transform="translate(-1364 -384)" fill="#1DA1F2"/>
</g>
</g>
</g>
<defs>
<path id="path0_fill" d="M 18.2633 1.8384e-07C 8.19196 1.8384e-07 1.83823e-07 8.19275 1.83823e-07 18.265C 1.83823e-07 28.3373 8.19196 36.53 18.2633 36.53C 28.3346 36.53 36.5265 28.3373 36.5265 18.265C 36.5265 8.19275 28.3346 1.8384e-07 18.2633 1.8384e-07ZM 18.2633 29.3011C 12.1819 29.3011 7.2282 24.3566 7.2282 18.265C 7.2282 12.1735 12.1916 7.2289 18.2633 7.2289C 24.3349 7.2289 29.2983 12.1735 29.2983 18.265C 29.2983 24.3566 24.3446 29.3011 18.2633 29.3011L 18.2633 29.3011Z"/>
<path id="path1_fill" d="M 51.7396 99.9999L 48.2604 99.9999C 45.5268 100.013 42.8885 98.9967 40.8692 97.154C 38.8499 95.3113 37.5973 92.7765 37.3603 90.0529L 37.2928 89.3445C 37.2336 88.6687 36.9903 88.022 36.5893 87.4748C 36.1882 86.9276 35.6449 86.5008 35.0184 86.2409C 34.3896 85.9649 33.6961 85.8706 33.0165 85.9685C 32.3368 86.0665 31.6982 86.3528 31.1729 86.7951L 30.614 87.2626C 26.4312 90.7565 19.7572 90.4577 15.8684 86.5879L 13.4108 84.13C 11.4695 82.2045 10.3227 79.6197 10.1977 76.8881C 10.0727 74.1566 10.9788 71.4778 12.7362 69.3831L 13.2085 68.8144C 13.6438 68.2964 13.9287 67.6689 14.0324 67.0002C 14.136 66.3315 14.0544 65.6472 13.7963 65.0216C 13.5422 64.3858 13.1167 63.833 12.5671 63.4246C 12.0175 63.0162 11.3655 62.7683 10.6834 62.7084L 9.96058 62.6409C 7.23469 62.4073 4.69658 61.1561 2.85103 59.1363C 1.00548 57.1164 -0.0122951 54.4759 0.000118088 51.7398L 0.000118088 48.2602C -0.012598 45.5264 1.00317 42.8878 2.84571 40.8683C 4.68826 38.8488 7.22282 37.5961 9.94612 37.3591L 10.6979 37.2916C 11.3732 37.2243 12.0175 36.9747 12.562 36.5694C 13.1064 36.1642 13.5305 35.6186 13.7888 34.991C 14.0472 34.3633 14.1301 33.6773 14.0287 33.0061C 13.9273 32.335 13.6455 31.7041 13.2133 31.1808L 12.7603 30.6217C 11 28.5292 10.0907 25.8513 10.213 23.1194C 10.3353 20.3876 11.4802 17.8016 13.4205 15.8748L 15.8877 13.4073C 19.762 9.53263 26.4312 9.23865 30.6332 12.7326L 31.1922 13.2049C 32.2427 14.0916 33.7365 14.3133 34.9991 13.7929C 35.6298 13.5372 36.1779 13.1128 36.5834 12.5662C 36.9888 12.0196 37.236 11.3719 37.2976 10.6941L 37.3651 9.95672C 37.5999 7.23143 38.8514 4.69426 40.8709 2.84953C 42.8905 1.00481 45.5301 -0.0123969 48.2652 0.000117975L 51.7444 0.000117975C 54.478 -0.0125994 57.1164 1.00326 59.1357 2.84599C 61.155 4.68871 62.4075 7.22352 62.6445 9.94708L 62.712 10.6989C 62.8325 12.0724 63.7047 13.2531 64.9865 13.7832C 66.3213 14.3471 67.7814 14.082 68.8126 13.2194L 69.3909 12.7278C 73.5688 9.24347 80.2524 9.53745 84.1364 13.4025L 86.594 15.87C 90.6225 19.9085 90.9116 26.2458 87.2686 30.6169L 86.7867 31.1856C 86.3448 31.701 86.0553 32.3293 85.9506 33.0001C 85.8459 33.6709 85.9302 34.3576 86.194 34.9832C 86.7337 36.2844 87.9288 37.1518 89.307 37.2868L 90.0394 37.3542C 92.7653 37.5879 95.3034 38.839 97.149 40.8589C 98.9945 42.8787 100.012 45.5193 99.9999 48.2554L 99.9999 51.7398C 100.013 54.4736 98.9968 57.1122 97.1543 59.1317C 95.3117 61.1512 92.7772 62.4039 90.0539 62.6409L 89.307 62.7084C 88.6345 62.7665 87.9911 63.0086 87.4471 63.4081C 86.9031 63.8076 86.4796 64.3492 86.2229 64.9735C 85.9551 65.6021 85.866 66.2925 85.9655 66.9685C 86.0649 67.6445 86.3491 68.28 86.7867 68.8048L 87.2686 69.3831C 90.9116 73.7445 90.6225 80.0819 86.594 84.13L 84.1364 86.5879C 80.2476 90.4625 73.5832 90.7517 69.3909 87.2626L 68.8367 86.7999C 68.3142 86.3676 67.6845 86.0847 67.0143 85.9811C 66.3441 85.8776 65.6584 85.9574 65.0298 86.212C 64.3953 86.468 63.8437 86.894 63.4356 87.4433C 63.0275 87.9926 62.7788 88.6437 62.7168 89.3252L 62.6494 90.0481C 62.4077 92.7682 61.1532 95.2983 59.1344 97.137C 57.1156 98.9757 54.4798 99.9889 51.7492 99.9758L 51.7396 99.9999ZM 33.5583 78.6987C 35.0039 78.6987 36.4158 78.9879 37.7506 79.5421C 39.6037 80.3016 41.2128 81.5553 42.4024 83.1665C 43.592 84.7778 44.3165 86.6847 44.4969 88.6794L 44.5644 89.3879C 44.7427 91.3156 46.3329 92.7613 48.2749 92.7613L 51.754 92.7613C 53.6816 92.7613 55.2718 91.3156 55.4549 89.3879L 55.5224 88.6746C 55.7006 86.6869 56.4201 84.786 57.6027 83.1785C 58.7853 81.571 60.3857 80.3183 62.2301 79.5566C 64.08 78.7873 66.1048 78.5379 68.086 78.8351C 70.0672 79.1324 71.9297 79.9651 73.4724 81.2433L 74.0169 81.6963C 74.7259 82.2977 75.6361 82.6086 76.5648 82.5666C 77.4935 82.5246 78.3719 82.1328 79.0236 81.4698L 81.4812 79.012C 82.1414 78.3599 82.5318 77.483 82.5747 76.556C 82.6176 75.629 82.3097 74.7198 81.7125 74.0096L 81.2306 73.4313C 79.9498 71.8995 79.1143 70.0454 78.8152 68.0712C 78.5161 66.097 78.7649 64.0786 79.5344 62.2361C 80.292 60.3847 81.5442 58.7774 83.1539 57.59C 84.7636 56.4025 86.6689 55.6808 88.6612 55.5036L 89.4082 55.4361C 90.3327 55.3517 91.1919 54.9238 91.8164 54.2368C 92.4409 53.5499 92.7852 52.6537 92.7813 51.7253L 92.7813 48.2458C 92.7825 47.3175 92.4358 46.4225 91.8096 45.7373C 91.1834 45.0521 90.3231 44.6266 89.3985 44.5446L 88.6661 44.4771C 86.6758 44.2999 84.7721 43.5804 83.1622 42.3968C 81.5522 41.2132 80.2975 39.6108 79.5344 37.7639C 78.7622 35.9184 78.5125 33.896 78.8125 31.9181C 79.1125 29.9402 79.9507 28.0829 81.2355 26.5495L 81.7173 25.9808C 82.3141 25.2685 82.6216 24.358 82.5787 23.4297C 82.5359 22.5014 82.1459 21.623 81.4861 20.9687L 79.0285 18.5109C 78.3769 17.8493 77.4995 17.4583 76.5719 17.4163C 75.6444 17.3743 74.7352 17.6844 74.0265 18.2844L 73.4483 18.7663C 71.9062 20.0254 70.0546 20.8477 68.0867 21.1478C 66.1187 21.4478 64.1062 21.2146 62.259 20.4724C 60.408 19.7117 58.8013 18.4573 57.6143 16.8461C 56.4272 15.2348 55.7052 13.3285 55.5272 11.335L 55.4597 10.588C 55.3798 9.66428 54.9553 8.80441 54.2705 8.17937C 53.5857 7.55433 52.6908 7.2099 51.7637 7.21456L 48.2797 7.21456C 47.3515 7.21334 46.4566 7.56009 45.7714 8.18638C 45.0863 8.81268 44.6608 9.67303 44.5788 10.5977L 44.5114 11.3302C 44.3359 13.318 43.6186 15.2197 42.4376 16.8282C 41.2566 18.4367 39.6572 19.6904 37.8133 20.4531C 35.965 21.2179 33.9434 21.465 31.9653 21.1678C 29.9873 20.8706 28.1275 20.0405 26.5854 18.7663L 26.0168 18.3037C 25.3064 17.7021 24.3952 17.3907 23.4652 17.4318C 22.5352 17.4729 21.655 17.8634 21.0005 18.5254L 18.5332 20.9832C 17.8764 21.6377 17.4892 22.5149 17.4482 23.4412C 17.4071 24.3676 17.7152 25.2756 18.3116 25.9856L 18.7934 26.5543C 21.3956 29.7013 22.0558 33.9952 20.4897 37.7591C 19.7294 39.6096 18.4759 41.216 16.8657 42.4031C 15.2556 43.5903 13.3505 44.3127 11.358 44.4916L 10.6063 44.5591C 9.6818 44.6434 8.82252 45.0714 8.19805 45.7583C 7.57358 46.4453 7.2293 47.3415 7.23314 48.2699L 7.23314 51.7494C 7.23314 53.6771 8.69324 55.2675 10.6159 55.4506L 11.3388 55.5181C 13.3323 55.6949 15.2391 56.4158 16.8511 57.6021C 18.4631 58.7885 19.7183 60.3948 20.48 62.2458C 22.0461 66.0337 21.3956 70.318 18.779 73.4505L 18.3164 74.0048C 17.7141 74.714 17.4022 75.6247 17.4433 76.5543C 17.4844 77.4839 17.8755 78.3635 18.538 79.0168L 20.9956 81.4746C 21.6472 82.1362 22.5246 82.5272 23.4522 82.5692C 24.3797 82.6112 25.2889 82.3011 25.9976 81.7011L 26.5565 81.2385C 28.5272 79.6105 31.0022 78.7178 33.5583 78.7132L 33.5583 78.6987Z"/>
</defs>
</svg>
