<svg width="34" height="28" viewBox="0 0 34 28" version="1.1" xmlns="http://www.w3.org/2000/svg" xmlns:xlink="http://www.w3.org/1999/xlink">
<title>twitter-logo</title>
<desc>Created using Figma</desc>
<g id="Canvas" transform="translate(2054 357)">
<g id="twitter-logo">
<use xlink:href="#path0_fill" transform="translate(-2054 -357)" fill="#1DA1F2"/>
</g>
</g>
<defs>
<path id="path0_fill" d="M 10.6803 28C 23.5102 28 30.5306 17.2244 30.5306 7.89567C 30.5306 7.59252 30.5306 7.28937 30.517 6.98622C 31.8776 5.9941 33.0612 4.74016 34 3.32087C 32.7483 3.88583 31.4014 4.25787 29.9864 4.43701C 31.4286 3.5689 32.5306 2.17717 33.0612 0.523622C 31.7143 1.33661 30.2177 1.91535 28.6259 2.23228C 27.3469 0.854331 25.5374 2.10259e-07 23.5374 2.10259e-07C 19.6871 2.10259e-07 16.5578 3.16929 16.5578 7.0689C 16.5578 7.62008 16.6259 8.15748 16.7347 8.6811C 10.9388 8.39173 5.79592 5.56693 2.35374 1.29528C 1.7551 2.34252 1.41497 3.55512 1.41497 4.85039C 1.41497 7.30315 2.65306 9.46654 4.51701 10.7343C 3.37415 10.6929 2.29932 10.376 1.36054 9.85236C 1.36054 9.87992 1.36054 9.90748 1.36054 9.94882C 1.36054 13.3661 3.76871 16.2323 6.95238 16.8799C 6.36735 17.0453 5.7551 17.128 5.11565 17.128C 4.66667 17.128 4.23129 17.0866 3.80952 17.0039C 4.69388 19.815 7.27891 21.8543 10.3265 21.9094C 7.93197 23.811 4.92517 24.9409 1.65986 24.9409C 1.10204 24.9409 0.544217 24.9134 -2.07603e-07 24.8445C 3.07483 26.8287 6.7483 28 10.6803 28Z"/>
</defs>
</svg>
